<svg id="visual" viewBox="0 0 900 600" width="900" height="600" xmlns="http://www.w3.org/2000/svg" xmlns:xlink="http://www.w3.org/1999/xlink" version="1.1"><rect x="0" y="0" width="900" height="600" fill="#1f8c6b"></rect><path d="M0 359L129 302L257 356L386 297L514 334L643 357L771 333L900 352L900 601L771 601L643 601L514 601L386 601L257 601L129 601L0 601Z" fill="#0a1433"></path><path d="M0 417L129 387L257 370L386 399L514 418L643 362L771 394L900 368L900 601L771 601L643 601L514 601L386 601L257 601L129 601L0 601Z" fill="#006c81"></path><path d="M0 468L129 455L257 446L386 399L514 475L643 434L771 464L900 474L900 601L771 601L643 601L514 601L386 601L257 601L129 601L0 601Z" fill="#1aa077"></path><path d="M0 487L129 459L257 509L386 520L514 464L643 490L771 501L900 478L900 601L771 601L643 601L514 601L386 601L257 601L129 601L0 601Z" fill="#006c81"></path><path d="M0 543L129 531L257 568L386 562L514 552L643 515L771 526L900 568L900 601L771 601L643 601L514 601L386 601L257 601L129 601L0 601Z" fill="#0a1433"></path></svg>